<svg width="30" height="30" viewBox="0 0 30 30" fill="none" xmlns="http://www.w3.org/2000/svg">
<path d="M22.5 11.25L26.25 15M26.25 15L22.5 18.75M26.25 15H13.75M17.5 8.75C17.5 7.585 17.5 7.0025 17.31 6.54375C17.1844 6.24023 17.0001 5.96444 16.7678 5.73215C16.5356 5.49987 16.2598 5.31564 15.9563 5.19C15.4975 5 14.915 5 13.75 5H7.75C6.35 5 5.65 5 5.115 5.2725C4.64461 5.51218 4.26218 5.89462 4.0225 6.365C3.75 6.89875 3.75 7.59875 3.75 8.99625V21.005C3.75 22.4025 3.75 23.1013 4.0225 23.635C4.2625 24.105 4.645 24.4875 5.115 24.7275C5.65 25 6.34875 25 7.74625 25H13.75C14.915 25 15.4975 25 15.9563 24.81C16.2598 24.6844 16.5356 24.5001 16.7678 24.2678C17.0001 24.0356 17.1844 23.7598 17.31 23.4562C17.5 22.9975 17.5 22.415 17.5 21.25" stroke="white" stroke-width="2" stroke-linecap="round" stroke-linejoin="round"/>
</svg>
